<mxfile host="app.diagrams.net" modified="2023-07-21T06:03:05.579Z" agent="Mozilla/5.0 (Windows NT 10.0; Win64; x64) AppleWebKit/537.36 (KHTML, like Gecko) Chrome/115.0.0.0 Safari/537.36" etag="r5q_PqTUatJaDk04Bbsq" version="21.6.5" type="google">
  <diagram name="Page-1" id="5-WVrIj2jz09qIY-iLNd">
    <mxGraphModel grid="1" page="1" gridSize="10" guides="1" tooltips="1" connect="1" arrows="1" fold="1" pageScale="1" pageWidth="850" pageHeight="1100" math="0" shadow="0">
      <root>
        <mxCell id="0" />
        <mxCell id="1" parent="0" />
        <mxCell id="MhRvYloIjCxxoVUC3hv4-1" value="" style="rounded=1;whiteSpace=wrap;html=1;fillColor=#dae8fc;strokeColor=#6c8ebf;" vertex="1" parent="1">
          <mxGeometry x="282" y="110" width="290" height="670" as="geometry" />
        </mxCell>
        <mxCell id="MhRvYloIjCxxoVUC3hv4-2" value="&lt;b style=&quot;border-color: var(--border-color);&quot;&gt;Banking System&lt;br&gt;&amp;lt;&amp;lt;Current Account&amp;gt;&amp;gt;&lt;br&gt;&lt;/b&gt;" style="text;html=1;strokeColor=none;fillColor=none;align=center;verticalAlign=middle;whiteSpace=wrap;rounded=0;" vertex="1" parent="1">
          <mxGeometry x="354" y="118" width="145" height="32" as="geometry" />
        </mxCell>
        <mxCell id="MhRvYloIjCxxoVUC3hv4-3" value="Customer" style="shape=umlActor;verticalLabelPosition=bottom;verticalAlign=top;html=1;outlineConnect=0;" vertex="1" parent="1">
          <mxGeometry x="120" y="480" width="30" height="60" as="geometry" />
        </mxCell>
        <mxCell id="MhRvYloIjCxxoVUC3hv4-4" value="Create Current Account" style="ellipse;whiteSpace=wrap;html=1;" vertex="1" parent="1">
          <mxGeometry x="335.5" y="177" width="180" height="63" as="geometry" />
        </mxCell>
        <mxCell id="MhRvYloIjCxxoVUC3hv4-5" value="Deposit Money" style="ellipse;whiteSpace=wrap;html=1;" vertex="1" parent="1">
          <mxGeometry x="335" y="278" width="180" height="63" as="geometry" />
        </mxCell>
        <mxCell id="MhRvYloIjCxxoVUC3hv4-6" value="Withdraw Money" style="ellipse;whiteSpace=wrap;html=1;" vertex="1" parent="1">
          <mxGeometry x="335.5" y="370" width="180" height="63" as="geometry" />
        </mxCell>
        <mxCell id="MhRvYloIjCxxoVUC3hv4-7" value="Check Balance" style="ellipse;whiteSpace=wrap;html=1;" vertex="1" parent="1">
          <mxGeometry x="335.5" y="470" width="180" height="63" as="geometry" />
        </mxCell>
        <mxCell id="MhRvYloIjCxxoVUC3hv4-8" value="Transfer Money" style="ellipse;whiteSpace=wrap;html=1;" vertex="1" parent="1">
          <mxGeometry x="335" y="580" width="180" height="63" as="geometry" />
        </mxCell>
        <mxCell id="MhRvYloIjCxxoVUC3hv4-9" value="Transaction History" style="ellipse;whiteSpace=wrap;html=1;" vertex="1" parent="1">
          <mxGeometry x="335" y="690" width="180" height="63" as="geometry" />
        </mxCell>
        <mxCell id="MhRvYloIjCxxoVUC3hv4-11" value="" style="endArrow=classic;html=1;rounded=0;entryX=0;entryY=0.5;entryDx=0;entryDy=0;exitX=0.5;exitY=0.5;exitDx=0;exitDy=0;exitPerimeter=0;" edge="1" parent="1" source="MhRvYloIjCxxoVUC3hv4-3" target="MhRvYloIjCxxoVUC3hv4-4">
          <mxGeometry width="50" height="50" relative="1" as="geometry">
            <mxPoint x="270" y="290" as="sourcePoint" />
            <mxPoint x="320" y="240" as="targetPoint" />
          </mxGeometry>
        </mxCell>
        <mxCell id="MhRvYloIjCxxoVUC3hv4-12" value="" style="endArrow=classic;html=1;rounded=0;entryX=0;entryY=0.5;entryDx=0;entryDy=0;exitX=0.5;exitY=0.5;exitDx=0;exitDy=0;exitPerimeter=0;" edge="1" parent="1" source="MhRvYloIjCxxoVUC3hv4-3" target="MhRvYloIjCxxoVUC3hv4-5">
          <mxGeometry width="50" height="50" relative="1" as="geometry">
            <mxPoint x="145" y="526" as="sourcePoint" />
            <mxPoint x="346" y="255" as="targetPoint" />
          </mxGeometry>
        </mxCell>
        <mxCell id="MhRvYloIjCxxoVUC3hv4-13" value="" style="endArrow=classic;html=1;rounded=0;entryX=0;entryY=0.5;entryDx=0;entryDy=0;exitX=0.5;exitY=0.5;exitDx=0;exitDy=0;exitPerimeter=0;" edge="1" parent="1" source="MhRvYloIjCxxoVUC3hv4-3" target="MhRvYloIjCxxoVUC3hv4-6">
          <mxGeometry width="50" height="50" relative="1" as="geometry">
            <mxPoint x="145" y="520" as="sourcePoint" />
            <mxPoint x="345" y="320" as="targetPoint" />
          </mxGeometry>
        </mxCell>
        <mxCell id="MhRvYloIjCxxoVUC3hv4-14" value="" style="endArrow=classic;html=1;rounded=0;entryX=0;entryY=0.5;entryDx=0;entryDy=0;exitX=0.5;exitY=0.5;exitDx=0;exitDy=0;exitPerimeter=0;" edge="1" parent="1" source="MhRvYloIjCxxoVUC3hv4-3" target="MhRvYloIjCxxoVUC3hv4-7">
          <mxGeometry width="50" height="50" relative="1" as="geometry">
            <mxPoint x="155" y="530" as="sourcePoint" />
            <mxPoint x="355" y="330" as="targetPoint" />
          </mxGeometry>
        </mxCell>
        <mxCell id="MhRvYloIjCxxoVUC3hv4-15" value="" style="endArrow=classic;html=1;rounded=0;entryX=0;entryY=0.5;entryDx=0;entryDy=0;exitX=0.5;exitY=0.5;exitDx=0;exitDy=0;exitPerimeter=0;" edge="1" parent="1" source="MhRvYloIjCxxoVUC3hv4-3" target="MhRvYloIjCxxoVUC3hv4-8">
          <mxGeometry width="50" height="50" relative="1" as="geometry">
            <mxPoint x="165" y="540" as="sourcePoint" />
            <mxPoint x="365" y="340" as="targetPoint" />
          </mxGeometry>
        </mxCell>
        <mxCell id="MhRvYloIjCxxoVUC3hv4-16" value="" style="endArrow=classic;html=1;rounded=0;entryX=0;entryY=0.5;entryDx=0;entryDy=0;exitX=0.5;exitY=0.5;exitDx=0;exitDy=0;exitPerimeter=0;" edge="1" parent="1" source="MhRvYloIjCxxoVUC3hv4-3" target="MhRvYloIjCxxoVUC3hv4-9">
          <mxGeometry width="50" height="50" relative="1" as="geometry">
            <mxPoint x="175" y="550" as="sourcePoint" />
            <mxPoint x="375" y="350" as="targetPoint" />
          </mxGeometry>
        </mxCell>
        <mxCell id="MhRvYloIjCxxoVUC3hv4-18" value="Bank System" style="shape=umlActor;verticalLabelPosition=bottom;verticalAlign=top;html=1;outlineConnect=0;" vertex="1" parent="1">
          <mxGeometry x="729" y="480" width="30" height="60" as="geometry" />
        </mxCell>
        <mxCell id="MhRvYloIjCxxoVUC3hv4-19" value="" style="endArrow=classic;html=1;rounded=0;entryX=1;entryY=0.5;entryDx=0;entryDy=0;exitX=0.5;exitY=0.5;exitDx=0;exitDy=0;exitPerimeter=0;" edge="1" parent="1" source="MhRvYloIjCxxoVUC3hv4-18" target="MhRvYloIjCxxoVUC3hv4-5">
          <mxGeometry width="50" height="50" relative="1" as="geometry">
            <mxPoint x="590" y="398" as="sourcePoint" />
            <mxPoint x="791" y="390" as="targetPoint" />
          </mxGeometry>
        </mxCell>
        <mxCell id="MhRvYloIjCxxoVUC3hv4-20" value="" style="endArrow=classic;html=1;rounded=0;entryX=1;entryY=0.5;entryDx=0;entryDy=0;exitX=0.5;exitY=0.5;exitDx=0;exitDy=0;exitPerimeter=0;" edge="1" parent="1" source="MhRvYloIjCxxoVUC3hv4-18" target="MhRvYloIjCxxoVUC3hv4-6">
          <mxGeometry width="50" height="50" relative="1" as="geometry">
            <mxPoint x="715" y="570" as="sourcePoint" />
            <mxPoint x="525" y="370" as="targetPoint" />
          </mxGeometry>
        </mxCell>
        <mxCell id="MhRvYloIjCxxoVUC3hv4-21" value="Update Balance" style="edgeLabel;html=1;align=center;verticalAlign=middle;resizable=0;points=[];" connectable="0" vertex="1" parent="MhRvYloIjCxxoVUC3hv4-20">
          <mxGeometry x="-0.2997" y="2" relative="1" as="geometry">
            <mxPoint x="-43" y="-24" as="offset" />
          </mxGeometry>
        </mxCell>
        <mxCell id="MhRvYloIjCxxoVUC3hv4-22" value="" style="endArrow=classic;html=1;rounded=0;entryX=1;entryY=0.5;entryDx=0;entryDy=0;exitX=0.5;exitY=0.5;exitDx=0;exitDy=0;exitPerimeter=0;" edge="1" parent="1" source="MhRvYloIjCxxoVUC3hv4-18" target="MhRvYloIjCxxoVUC3hv4-8">
          <mxGeometry width="50" height="50" relative="1" as="geometry">
            <mxPoint x="725" y="630" as="sourcePoint" />
            <mxPoint x="535" y="430" as="targetPoint" />
          </mxGeometry>
        </mxCell>
        <mxCell id="MhRvYloIjCxxoVUC3hv4-23" value="Update Balance" style="edgeLabel;html=1;align=center;verticalAlign=middle;resizable=0;points=[];" connectable="0" vertex="1" parent="MhRvYloIjCxxoVUC3hv4-22">
          <mxGeometry x="-0.2997" y="2" relative="1" as="geometry">
            <mxPoint x="-24" y="13" as="offset" />
          </mxGeometry>
        </mxCell>
        <mxCell id="MhRvYloIjCxxoVUC3hv4-24" value="" style="endArrow=classic;html=1;rounded=0;entryX=1;entryY=0.5;entryDx=0;entryDy=0;exitX=0.5;exitY=0.5;exitDx=0;exitDy=0;exitPerimeter=0;" edge="1" parent="1" source="MhRvYloIjCxxoVUC3hv4-18" target="MhRvYloIjCxxoVUC3hv4-4">
          <mxGeometry width="50" height="50" relative="1" as="geometry">
            <mxPoint x="729" y="420" as="sourcePoint" />
            <mxPoint x="539" y="220" as="targetPoint" />
          </mxGeometry>
        </mxCell>
        <mxCell id="MhRvYloIjCxxoVUC3hv4-25" value="Update Balance" style="edgeLabel;html=1;align=center;verticalAlign=middle;resizable=0;points=[];" connectable="0" vertex="1" parent="MhRvYloIjCxxoVUC3hv4-24">
          <mxGeometry x="-0.2997" y="2" relative="1" as="geometry">
            <mxPoint x="-43" as="offset" />
          </mxGeometry>
        </mxCell>
        <mxCell id="MhRvYloIjCxxoVUC3hv4-26" value="Approve or Reject" style="edgeLabel;html=1;align=center;verticalAlign=middle;resizable=0;points=[];" connectable="0" vertex="1" parent="MhRvYloIjCxxoVUC3hv4-24">
          <mxGeometry x="0.0769" y="2" relative="1" as="geometry">
            <mxPoint as="offset" />
          </mxGeometry>
        </mxCell>
      </root>
    </mxGraphModel>
  </diagram>
</mxfile>
